o Sphere
v 0 2 0
v 0 2 0
v 0 2 0
v 0 2 0
v 0 2 0
v 0 2 0
v 0 2 0
v 0 2 0
v 0 2 0
v 0 2 0
v 0 2 0
v -0.6180340051651001 1.9021130800247192 0
v -0.5 1.9021130800247192 0.3632712662220001
v -0.19098301231861115 1.9021130800247192 0.5877852439880371
v 0.19098301231861115 1.9021130800247192 0.5877852439880371
v 0.5 1.9021130800247192 0.3632712662220001
v 0.6180340051651001 1.9021130800247192 7.568733706851235e-17
v 0.5 1.9021130800247192 -0.3632712662220001
v 0.19098301231861115 1.9021130800247192 -0.5877852439880371
v -0.19098301231861115 1.9021130800247192 -0.5877852439880371
v -0.5 1.9021130800247192 -0.3632712662220001
v -0.6180340051651001 1.9021130800247192 -1.513746741370247e-16
v -1.1755704879760742 1.6180340051651 0
v -0.9510565400123596 1.6180340051651 0.69098299741745
v -0.3632712662220001 1.6180340051651 1.1180340051651
v 0.3632712662220001 1.6180340051651 1.1180340051651
v 0.9510565400123596 1.6180340051651 0.69098299741745
v 1.1755704879760742 1.6180340051651 1.4396586223584855e-16
v 0.9510565400123596 1.6180340051651 -0.69098299741745
v 0.3632712662220001 1.6180340051651 -1.1180340051651
v -0.3632712662220001 1.6180340051651 -1.1180340051651
v -0.9510565400123596 1.6180340051651 -0.69098299741745
v -1.1755704879760742 1.6180340051651 -2.879317244716971e-16
v -1.6180340051651 1.1755704879760742 0
v -1.3090169429779053 1.1755704879760742 0.9510565400123596
v -0.5 1.1755704879760742 1.538841724395752
v 0.5 1.1755704879760742 1.538841724395752
v 1.3090169429779053 1.1755704879760742 0.9510565400123596
v 1.6180340051651 1.1755704879760742 1.9815201570958424e-16
v 1.3090169429779053 1.1755704879760742 -0.9510565400123596
v 0.5 1.1755704879760742 -1.538841724395752
v -0.5 1.1755704879760742 -1.538841724395752
v -1.3090169429779053 1.1755704879760742 -0.9510565400123596
v -1.6180340051651 1.1755704879760742 -3.9630403141916847e-16
v -1.9021130800247192 0.6180340051651001 0
v -1.538841724395752 0.6180340051651001 1.1180340051651
v -0.5877852439880371 0.6180340051651001 1.8090169429779053
v 0.5877852439880371 0.6180340051651001 1.8090169429779053
v 1.538841724395752 0.6180340051651001 1.1180340051651
v 1.9021130800247192 0.6180340051651001 2.329416573216783e-16
v 1.538841724395752 0.6180340051651001 -1.1180340051651
v 0.5877852439880371 0.6180340051651001 -1.8090169429779053
v -0.5877852439880371 0.6180340051651001 -1.8090169429779053
v -1.538841724395752 0.6180340051651001 -1.1180340051651
v -1.9021130800247192 0.6180340051651001 -4.658833146433566e-16
v -2 1.2246468525851679e-16 0
v -1.6180340051651 1.2246468525851679e-16 1.1755704879760742
v -0.6180340051651001 1.2246468525851679e-16 1.9021130800247192
v 0.6180340051651001 1.2246468525851679e-16 1.9021130800247192
v 1.6180340051651 1.2246468525851679e-16 1.1755704879760742
v 2 1.2246468525851679e-16 2.4492937051703357e-16
v 1.6180340051651 1.2246468525851679e-16 -1.1755704879760742
v 0.6180340051651001 1.2246468525851679e-16 -1.9021130800247192
v -0.6180340051651001 1.2246468525851679e-16 -1.9021130800247192
v -1.6180340051651 1.2246468525851679e-16 -1.1755704879760742
v -2 1.2246468525851679e-16 -4.898587410340671e-16
v -1.9021130800247192 -0.6180340051651001 0
v -1.538841724395752 -0.6180340051651001 1.1180340051651
v -0.5877852439880371 -0.6180340051651001 1.8090169429779053
v 0.5877852439880371 -0.6180340051651001 1.8090169429779053
v 1.538841724395752 -0.6180340051651001 1.1180340051651
v 1.9021130800247192 -0.6180340051651001 2.329416573216783e-16
v 1.538841724395752 -0.6180340051651001 -1.1180340051651
v 0.5877852439880371 -0.6180340051651001 -1.8090169429779053
v -0.5877852439880371 -0.6180340051651001 -1.8090169429779053
v -1.538841724395752 -0.6180340051651001 -1.1180340051651
v -1.9021130800247192 -0.6180340051651001 -4.658833146433566e-16
v -1.6180340051651 -1.1755704879760742 0
v -1.3090169429779053 -1.1755704879760742 0.9510565400123596
v -0.5 -1.1755704879760742 1.538841724395752
v 0.5 -1.1755704879760742 1.538841724395752
v 1.3090169429779053 -1.1755704879760742 0.9510565400123596
v 1.6180340051651 -1.1755704879760742 1.9815201570958424e-16
v 1.3090169429779053 -1.1755704879760742 -0.9510565400123596
v 0.5 -1.1755704879760742 -1.538841724395752
v -0.5 -1.1755704879760742 -1.538841724395752
v -1.3090169429779053 -1.1755704879760742 -0.9510565400123596
v -1.6180340051651 -1.1755704879760742 -3.9630403141916847e-16
v -1.1755704879760742 -1.6180340051651 0
v -0.9510565400123596 -1.6180340051651 0.69098299741745
v -0.3632712662220001 -1.6180340051651 1.1180340051651
v 0.3632712662220001 -1.6180340051651 1.1180340051651
v 0.9510565400123596 -1.6180340051651 0.69098299741745
v 1.1755704879760742 -1.6180340051651 1.4396586223584855e-16
v 0.9510565400123596 -1.6180340051651 -0.69098299741745
v 0.3632712662220001 -1.6180340051651 -1.1180340051651
v -0.3632712662220001 -1.6180340051651 -1.1180340051651
v -0.9510565400123596 -1.6180340051651 -0.69098299741745
v -1.1755704879760742 -1.6180340051651 -2.879317244716971e-16
v -0.6180340051651001 -1.9021130800247192 0
v -0.5 -1.9021130800247192 0.3632712662220001
v -0.19098301231861115 -1.9021130800247192 0.5877852439880371
v 0.19098301231861115 -1.9021130800247192 0.5877852439880371
v 0.5 -1.9021130800247192 0.3632712662220001
v 0.6180340051651001 -1.9021130800247192 7.568733706851235e-17
v 0.5 -1.9021130800247192 -0.3632712662220001
v 0.19098301231861115 -1.9021130800247192 -0.5877852439880371
v -0.19098301231861115 -1.9021130800247192 -0.5877852439880371
v -0.5 -1.9021130800247192 -0.3632712662220001
v -0.6180340051651001 -1.9021130800247192 -1.513746741370247e-16
v -2.4492937051703357e-16 -2 0
v -1.9815201570958424e-16 -2 1.4396586223584855e-16
v -7.568733706851235e-17 -2 2.329416573216783e-16
v 7.568733706851235e-17 -2 2.329416573216783e-16
v 1.9815201570958424e-16 -2 1.4396586223584855e-16
v 2.4492937051703357e-16 -2 2.9995195144423884e-32
v 1.9815201570958424e-16 -2 -1.4396586223584855e-16
v 7.568733706851235e-17 -2 -2.329416573216783e-16
v -7.568733706851235e-17 -2 -2.329416573216783e-16
v -1.9815201570958424e-16 -2 -1.4396586223584855e-16
v -2.4492937051703357e-16 -2 -5.999039028884777e-32
vt 0.05000000074505806 1
vt 0.15000000596046448 1
vt 0.25 1
vt 0.3499999940395355 1
vt 0.44999998807907104 1
vt 0.550000011920929 1
vt 0.6499999761581421 1
vt 0.75 1
vt 0.8500000238418579 1
vt 0.949999988079071 1
vt 1.0499999523162842 1
vt 0 0.8999999761581421
vt 0.10000000149011612 0.8999999761581421
vt 0.20000000298023224 0.8999999761581421
vt 0.30000001192092896 0.8999999761581421
vt 0.4000000059604645 0.8999999761581421
vt 0.5 0.8999999761581421
vt 0.6000000238418579 0.8999999761581421
vt 0.699999988079071 0.8999999761581421
vt 0.800000011920929 0.8999999761581421
vt 0.8999999761581421 0.8999999761581421
vt 1 0.8999999761581421
vt 0 0.800000011920929
vt 0.10000000149011612 0.800000011920929
vt 0.20000000298023224 0.800000011920929
vt 0.30000001192092896 0.800000011920929
vt 0.4000000059604645 0.800000011920929
vt 0.5 0.800000011920929
vt 0.6000000238418579 0.800000011920929
vt 0.699999988079071 0.800000011920929
vt 0.800000011920929 0.800000011920929
vt 0.8999999761581421 0.800000011920929
vt 1 0.800000011920929
vt 0 0.699999988079071
vt 0.10000000149011612 0.699999988079071
vt 0.20000000298023224 0.699999988079071
vt 0.30000001192092896 0.699999988079071
vt 0.4000000059604645 0.699999988079071
vt 0.5 0.699999988079071
vt 0.6000000238418579 0.699999988079071
vt 0.699999988079071 0.699999988079071
vt 0.800000011920929 0.699999988079071
vt 0.8999999761581421 0.699999988079071
vt 1 0.699999988079071
vt 0 0.6000000238418579
vt 0.10000000149011612 0.6000000238418579
vt 0.20000000298023224 0.6000000238418579
vt 0.30000001192092896 0.6000000238418579
vt 0.4000000059604645 0.6000000238418579
vt 0.5 0.6000000238418579
vt 0.6000000238418579 0.6000000238418579
vt 0.699999988079071 0.6000000238418579
vt 0.800000011920929 0.6000000238418579
vt 0.8999999761581421 0.6000000238418579
vt 1 0.6000000238418579
vt 0 0.5
vt 0.10000000149011612 0.5
vt 0.20000000298023224 0.5
vt 0.30000001192092896 0.5
vt 0.4000000059604645 0.5
vt 0.5 0.5
vt 0.6000000238418579 0.5
vt 0.699999988079071 0.5
vt 0.800000011920929 0.5
vt 0.8999999761581421 0.5
vt 1 0.5
vt 0 0.4000000059604645
vt 0.10000000149011612 0.4000000059604645
vt 0.20000000298023224 0.4000000059604645
vt 0.30000001192092896 0.4000000059604645
vt 0.4000000059604645 0.4000000059604645
vt 0.5 0.4000000059604645
vt 0.6000000238418579 0.4000000059604645
vt 0.699999988079071 0.4000000059604645
vt 0.800000011920929 0.4000000059604645
vt 0.8999999761581421 0.4000000059604645
vt 1 0.4000000059604645
vt 0 0.30000001192092896
vt 0.10000000149011612 0.30000001192092896
vt 0.20000000298023224 0.30000001192092896
vt 0.30000001192092896 0.30000001192092896
vt 0.4000000059604645 0.30000001192092896
vt 0.5 0.30000001192092896
vt 0.6000000238418579 0.30000001192092896
vt 0.699999988079071 0.30000001192092896
vt 0.800000011920929 0.30000001192092896
vt 0.8999999761581421 0.30000001192092896
vt 1 0.30000001192092896
vt 0 0.20000000298023224
vt 0.10000000149011612 0.20000000298023224
vt 0.20000000298023224 0.20000000298023224
vt 0.30000001192092896 0.20000000298023224
vt 0.4000000059604645 0.20000000298023224
vt 0.5 0.20000000298023224
vt 0.6000000238418579 0.20000000298023224
vt 0.699999988079071 0.20000000298023224
vt 0.800000011920929 0.20000000298023224
vt 0.8999999761581421 0.20000000298023224
vt 1 0.20000000298023224
vt 0 0.10000000149011612
vt 0.10000000149011612 0.10000000149011612
vt 0.20000000298023224 0.10000000149011612
vt 0.30000001192092896 0.10000000149011612
vt 0.4000000059604645 0.10000000149011612
vt 0.5 0.10000000149011612
vt 0.6000000238418579 0.10000000149011612
vt 0.699999988079071 0.10000000149011612
vt 0.800000011920929 0.10000000149011612
vt 0.8999999761581421 0.10000000149011612
vt 1 0.10000000149011612
vt -0.05000000074505806 0
vt 0.05000000074505806 0
vt 0.15000000596046448 0
vt 0.25 0
vt 0.3499999940395355 0
vt 0.44999998807907104 0
vt 0.550000011920929 0
vt 0.6499999761581421 0
vt 0.75 0
vt 0.8500000238418579 0
vt 0.949999988079071 0
vn 0 1 0
vn 0 1 0
vn 0 1 0
vn 0 1 0
vn 0 1 0
vn 0 1 0
vn 0 1 0
vn 0 1 0
vn 0 1 0
vn 0 1 0
vn 0 1 0
vn -0.3090169948284817 0.9510565161477913 0
vn -0.24999999431051087 0.9510565183682562 0.18163562897734423
vn -0.09549150409137153 0.9510565194165781 0.2938926156295723
vn 0.09549150409137153 0.9510565194165781 0.2938926156295723
vn 0.24999999431051087 0.9510565183682562 0.18163562897734423
vn 0.3090169948284817 0.9510565161477913 3.784366758465668e-17
vn 0.24999999431051087 0.9510565183682562 -0.18163562897734423
vn 0.09549150409137153 0.9510565194165781 -0.2938926156295723
vn -0.09549150409137153 0.9510565194165781 -0.2938926156295723
vn -0.24999999431051087 0.9510565183682562 -0.18163562897734423
vn -0.3090169948284817 0.9510565161477913 -7.568733516931335e-17
vn -0.5877852429542022 0.8090170011595983 0
vn -0.47552826484129496 0.8090169937955233 0.3454914949562166
vn -0.1816356310349351 0.8090169933356208 0.5590169961930791
vn 0.1816356310349351 0.8090169933356208 0.5590169961930791
vn 0.47552826484129496 0.8090169937955233 0.3454914949562166
vn 0.5877852429542022 0.8090170011595983 7.198293099131601e-17
vn 0.47552826484129496 0.8090169937955233 -0.3454914949562166
vn 0.1816356310349351 0.8090169933356208 -0.5590169961930791
vn -0.1816356310349351 0.8090169933356208 -0.5590169961930791
vn -0.47552826484129496 0.8090169937955233 -0.3454914949562166
vn -0.5877852429542022 0.8090170011595983 -1.4396586198263202e-16
vn -0.8090170011595983 0.5877852429542022 0
vn -0.6545084820016838 0.5877852534290582 0.4755282776441266
vn -0.25000000547057527 0.5877852568501308 0.7694208790345749
vn 0.25000000547057527 0.5877852568501308 0.7694208790345749
vn 0.6545084820016838 0.5877852534290582 0.4755282776441266
vn 0.8090170011595983 0.5877852429542022 9.907600768053078e-17
vn 0.6545084820016838 0.5877852534290582 -0.4755282776441266
vn 0.25000000547057527 0.5877852568501308 -0.7694208790345749
vn -0.25000000547057527 0.5877852568501308 -0.7694208790345749
vn -0.6545084820016838 0.5877852534290582 -0.4755282776441266
vn -0.8090170011595983 0.5877852429542022 -1.9815201536106157e-16
vn -0.9510565161477913 0.3090169948284817 0
vn -0.769420869797136 0.30901700563458656 0.5590170081037359
vn -0.29389262843865716 0.3090170093588444 0.9045084913235105
vn 0.29389262843865716 0.3090170093588444 0.9045084913235105
vn 0.769420869797136 0.30901700563458656 0.5590170081037359
vn 0.9510565161477913 0.3090169948284817 1.1647082573827256e-16
vn 0.769420869797136 0.30901700563458656 -0.5590170081037359
vn 0.29389262843865716 0.3090170093588444 -0.9045084913235105
vn -0.29389262843865716 0.3090170093588444 -0.9045084913235105
vn -0.769420869797136 0.30901700563458656 -0.5590170081037359
vn -0.9510565161477913 0.3090169948284817 -2.329416514765451e-16
vn -1 6.123234262925839e-17 0
vn -0.8090170011595983 6.123234252155896e-17 0.5877852429542022
vn -0.3090169948284817 6.123234109277411e-17 0.9510565161477913
vn 0.3090169948284817 6.123234109277411e-17 0.9510565161477913
vn 0.8090170011595983 6.123234252155896e-17 0.5877852429542022
vn 1 6.123234262925839e-17 1.2246468525851679e-16
vn 0.8090170011595983 6.123234252155896e-17 -0.5877852429542022
vn 0.3090169948284817 6.123234109277411e-17 -0.9510565161477913
vn -0.3090169948284817 6.123234109277411e-17 -0.9510565161477913
vn -0.8090170011595983 6.123234252155896e-17 -0.5877852429542022
vn -1 6.123234262925839e-17 -2.4492937051703357e-16
vn -0.9510565161477913 -0.3090169948284817 0
vn -0.769420869797136 -0.30901700563458656 0.5590170081037359
vn -0.29389262843865716 -0.3090170093588444 0.9045084913235105
vn 0.29389262843865716 -0.3090170093588444 0.9045084913235105
vn 0.769420869797136 -0.30901700563458656 0.5590170081037359
vn 0.9510565161477913 -0.3090169948284817 1.1647082573827256e-16
vn 0.769420869797136 -0.30901700563458656 -0.5590170081037359
vn 0.29389262843865716 -0.3090170093588444 -0.9045084913235105
vn -0.29389262843865716 -0.3090170093588444 -0.9045084913235105
vn -0.769420869797136 -0.30901700563458656 -0.5590170081037359
vn -0.9510565161477913 -0.3090169948284817 -2.329416514765451e-16
vn -0.8090170011595983 -0.5877852429542022 0
vn -0.6545084820016838 -0.5877852534290582 0.4755282776441266
vn -0.25000000547057527 -0.5877852568501308 0.7694208790345749
vn 0.25000000547057527 -0.5877852568501308 0.7694208790345749
vn 0.6545084820016838 -0.5877852534290582 0.4755282776441266
vn 0.8090170011595983 -0.5877852429542022 9.907600768053078e-17
vn 0.6545084820016838 -0.5877852534290582 -0.4755282776441266
vn 0.25000000547057527 -0.5877852568501308 -0.7694208790345749
vn -0.25000000547057527 -0.5877852568501308 -0.7694208790345749
vn -0.6545084820016838 -0.5877852534290582 -0.4755282776441266
vn -0.8090170011595983 -0.5877852429542022 -1.9815201536106157e-16
vn -0.5877852429542022 -0.8090170011595983 0
vn -0.47552826484129496 -0.8090169937955233 0.3454914949562166
vn -0.1816356310349351 -0.8090169933356208 0.5590169961930791
vn 0.1816356310349351 -0.8090169933356208 0.5590169961930791
vn 0.47552826484129496 -0.8090169937955233 0.3454914949562166
vn 0.5877852429542022 -0.8090170011595983 7.198293099131601e-17
vn 0.47552826484129496 -0.8090169937955233 -0.3454914949562166
vn 0.1816356310349351 -0.8090169933356208 -0.5590169961930791
vn -0.1816356310349351 -0.8090169933356208 -0.5590169961930791
vn -0.47552826484129496 -0.8090169937955233 -0.3454914949562166
vn -0.5877852429542022 -0.8090170011595983 -1.4396586198263202e-16
vn -0.3090169948284817 -0.9510565161477913 0
vn -0.24999999431051087 -0.9510565183682562 0.18163562897734423
vn -0.09549150409137153 -0.9510565194165781 0.2938926156295723
vn 0.09549150409137153 -0.9510565194165781 0.2938926156295723
vn 0.24999999431051087 -0.9510565183682562 0.18163562897734423
vn 0.3090169948284817 -0.9510565161477913 3.784366758465668e-17
vn 0.24999999431051087 -0.9510565183682562 -0.18163562897734423
vn 0.09549150409137153 -0.9510565194165781 -0.2938926156295723
vn -0.09549150409137153 -0.9510565194165781 -0.2938926156295723
vn -0.24999999431051087 -0.9510565183682562 -0.18163562897734423
vn -0.3090169948284817 -0.9510565161477913 -7.568733516931335e-17
vn -1.2246468525851679e-16 -1 0
vn -9.907600785479212e-17 -1 7.198293111792428e-17
vn -3.7843668534256176e-17 -1 1.1647082866083914e-16
vn 3.7843668534256176e-17 -1 1.1647082866083914e-16
vn 9.907600785479212e-17 -1 7.198293111792428e-17
vn 1.2246468525851679e-16 -1 1.4997597572211942e-32
vn 9.907600785479212e-17 -1 -7.198293111792428e-17
vn 3.7843668534256176e-17 -1 -1.1647082866083914e-16
vn -3.7843668534256176e-17 -1 -1.1647082866083914e-16
vn -9.907600785479212e-17 -1 -7.198293111792428e-17
vn -1.2246468525851679e-16 -1 -2.9995195144423884e-32
f 1/1/1 12/12/12 13/13/13
f 2/2/2 13/13/13 14/14/14
f 3/3/3 14/14/14 15/15/15
f 4/4/4 15/15/15 16/16/16
f 5/5/5 16/16/16 17/17/17
f 6/6/6 17/17/17 18/18/18
f 7/7/7 18/18/18 19/19/19
f 8/8/8 19/19/19 20/20/20
f 9/9/9 20/20/20 21/21/21
f 10/10/10 21/21/21 22/22/22
f 13/13/13 12/12/12 24/24/24
f 12/12/12 23/23/23 24/24/24
f 14/14/14 13/13/13 25/25/25
f 13/13/13 24/24/24 25/25/25
f 15/15/15 14/14/14 26/26/26
f 14/14/14 25/25/25 26/26/26
f 16/16/16 15/15/15 27/27/27
f 15/15/15 26/26/26 27/27/27
f 17/17/17 16/16/16 28/28/28
f 16/16/16 27/27/27 28/28/28
f 18/18/18 17/17/17 29/29/29
f 17/17/17 28/28/28 29/29/29
f 19/19/19 18/18/18 30/30/30
f 18/18/18 29/29/29 30/30/30
f 20/20/20 19/19/19 31/31/31
f 19/19/19 30/30/30 31/31/31
f 21/21/21 20/20/20 32/32/32
f 20/20/20 31/31/31 32/32/32
f 22/22/22 21/21/21 33/33/33
f 21/21/21 32/32/32 33/33/33
f 24/24/24 23/23/23 35/35/35
f 23/23/23 34/34/34 35/35/35
f 25/25/25 24/24/24 36/36/36
f 24/24/24 35/35/35 36/36/36
f 26/26/26 25/25/25 37/37/37
f 25/25/25 36/36/36 37/37/37
f 27/27/27 26/26/26 38/38/38
f 26/26/26 37/37/37 38/38/38
f 28/28/28 27/27/27 39/39/39
f 27/27/27 38/38/38 39/39/39
f 29/29/29 28/28/28 40/40/40
f 28/28/28 39/39/39 40/40/40
f 30/30/30 29/29/29 41/41/41
f 29/29/29 40/40/40 41/41/41
f 31/31/31 30/30/30 42/42/42
f 30/30/30 41/41/41 42/42/42
f 32/32/32 31/31/31 43/43/43
f 31/31/31 42/42/42 43/43/43
f 33/33/33 32/32/32 44/44/44
f 32/32/32 43/43/43 44/44/44
f 35/35/35 34/34/34 46/46/46
f 34/34/34 45/45/45 46/46/46
f 36/36/36 35/35/35 47/47/47
f 35/35/35 46/46/46 47/47/47
f 37/37/37 36/36/36 48/48/48
f 36/36/36 47/47/47 48/48/48
f 38/38/38 37/37/37 49/49/49
f 37/37/37 48/48/48 49/49/49
f 39/39/39 38/38/38 50/50/50
f 38/38/38 49/49/49 50/50/50
f 40/40/40 39/39/39 51/51/51
f 39/39/39 50/50/50 51/51/51
f 41/41/41 40/40/40 52/52/52
f 40/40/40 51/51/51 52/52/52
f 42/42/42 41/41/41 53/53/53
f 41/41/41 52/52/52 53/53/53
f 43/43/43 42/42/42 54/54/54
f 42/42/42 53/53/53 54/54/54
f 44/44/44 43/43/43 55/55/55
f 43/43/43 54/54/54 55/55/55
f 46/46/46 45/45/45 57/57/57
f 45/45/45 56/56/56 57/57/57
f 47/47/47 46/46/46 58/58/58
f 46/46/46 57/57/57 58/58/58
f 48/48/48 47/47/47 59/59/59
f 47/47/47 58/58/58 59/59/59
f 49/49/49 48/48/48 60/60/60
f 48/48/48 59/59/59 60/60/60
f 50/50/50 49/49/49 61/61/61
f 49/49/49 60/60/60 61/61/61
f 51/51/51 50/50/50 62/62/62
f 50/50/50 61/61/61 62/62/62
f 52/52/52 51/51/51 63/63/63
f 51/51/51 62/62/62 63/63/63
f 53/53/53 52/52/52 64/64/64
f 52/52/52 63/63/63 64/64/64
f 54/54/54 53/53/53 65/65/65
f 53/53/53 64/64/64 65/65/65
f 55/55/55 54/54/54 66/66/66
f 54/54/54 65/65/65 66/66/66
f 57/57/57 56/56/56 68/68/68
f 56/56/56 67/67/67 68/68/68
f 58/58/58 57/57/57 69/69/69
f 57/57/57 68/68/68 69/69/69
f 59/59/59 58/58/58 70/70/70
f 58/58/58 69/69/69 70/70/70
f 60/60/60 59/59/59 71/71/71
f 59/59/59 70/70/70 71/71/71
f 61/61/61 60/60/60 72/72/72
f 60/60/60 71/71/71 72/72/72
f 62/62/62 61/61/61 73/73/73
f 61/61/61 72/72/72 73/73/73
f 63/63/63 62/62/62 74/74/74
f 62/62/62 73/73/73 74/74/74
f 64/64/64 63/63/63 75/75/75
f 63/63/63 74/74/74 75/75/75
f 65/65/65 64/64/64 76/76/76
f 64/64/64 75/75/75 76/76/76
f 66/66/66 65/65/65 77/77/77
f 65/65/65 76/76/76 77/77/77
f 68/68/68 67/67/67 79/79/79
f 67/67/67 78/78/78 79/79/79
f 69/69/69 68/68/68 80/80/80
f 68/68/68 79/79/79 80/80/80
f 70/70/70 69/69/69 81/81/81
f 69/69/69 80/80/80 81/81/81
f 71/71/71 70/70/70 82/82/82
f 70/70/70 81/81/81 82/82/82
f 72/72/72 71/71/71 83/83/83
f 71/71/71 82/82/82 83/83/83
f 73/73/73 72/72/72 84/84/84
f 72/72/72 83/83/83 84/84/84
f 74/74/74 73/73/73 85/85/85
f 73/73/73 84/84/84 85/85/85
f 75/75/75 74/74/74 86/86/86
f 74/74/74 85/85/85 86/86/86
f 76/76/76 75/75/75 87/87/87
f 75/75/75 86/86/86 87/87/87
f 77/77/77 76/76/76 88/88/88
f 76/76/76 87/87/87 88/88/88
f 79/79/79 78/78/78 90/90/90
f 78/78/78 89/89/89 90/90/90
f 80/80/80 79/79/79 91/91/91
f 79/79/79 90/90/90 91/91/91
f 81/81/81 80/80/80 92/92/92
f 80/80/80 91/91/91 92/92/92
f 82/82/82 81/81/81 93/93/93
f 81/81/81 92/92/92 93/93/93
f 83/83/83 82/82/82 94/94/94
f 82/82/82 93/93/93 94/94/94
f 84/84/84 83/83/83 95/95/95
f 83/83/83 94/94/94 95/95/95
f 85/85/85 84/84/84 96/96/96
f 84/84/84 95/95/95 96/96/96
f 86/86/86 85/85/85 97/97/97
f 85/85/85 96/96/96 97/97/97
f 87/87/87 86/86/86 98/98/98
f 86/86/86 97/97/97 98/98/98
f 88/88/88 87/87/87 99/99/99
f 87/87/87 98/98/98 99/99/99
f 90/90/90 89/89/89 101/101/101
f 89/89/89 100/100/100 101/101/101
f 91/91/91 90/90/90 102/102/102
f 90/90/90 101/101/101 102/102/102
f 92/92/92 91/91/91 103/103/103
f 91/91/91 102/102/102 103/103/103
f 93/93/93 92/92/92 104/104/104
f 92/92/92 103/103/103 104/104/104
f 94/94/94 93/93/93 105/105/105
f 93/93/93 104/104/104 105/105/105
f 95/95/95 94/94/94 106/106/106
f 94/94/94 105/105/105 106/106/106
f 96/96/96 95/95/95 107/107/107
f 95/95/95 106/106/106 107/107/107
f 97/97/97 96/96/96 108/108/108
f 96/96/96 107/107/107 108/108/108
f 98/98/98 97/97/97 109/109/109
f 97/97/97 108/108/108 109/109/109
f 99/99/99 98/98/98 110/110/110
f 98/98/98 109/109/109 110/110/110
f 101/101/101 100/100/100 112/112/112
f 102/102/102 101/101/101 113/113/113
f 103/103/103 102/102/102 114/114/114
f 104/104/104 103/103/103 115/115/115
f 105/105/105 104/104/104 116/116/116
f 106/106/106 105/105/105 117/117/117
f 107/107/107 106/106/106 118/118/118
f 108/108/108 107/107/107 119/119/119
f 109/109/109 108/108/108 120/120/120
f 110/110/110 109/109/109 121/121/121
